<?xml version="1.0" encoding="UTF-8"?>
<svg width="289px" height="204px" viewBox="0 0 289 204" version="1.1" xmlns="http://www.w3.org/2000/svg" xmlns:xlink="http://www.w3.org/1999/xlink">
    <!-- Generator: Sketch 42 (36781) - http://www.bohemiancoding.com/sketch -->
    <title>dude</title>
    <desc>Created with Sketch.</desc>
    <defs></defs>
    <g id="Page-1" stroke="none" stroke-width="1" fill="none" fill-rule="evenodd">
        <g id="detroit-js-logo" fill="#040404">
            <path d="M255.63,41.096 C255.776,40.585 255.94,40.08 256.096,39.571 C255.208,40.794 254.358,42.083 253.139,43.004 C251.438,44.39 249.34,45.167 247.203,45.574 C244.157,46.463 240.939,46.621 237.788,46.404 C235.976,46.257 234.173,45.897 232.526,45.105 C224.245,51.754 215.797,58.191 207.478,64.789 C206.958493,64.0826244 206.481965,63.3456256 206.051,62.582 C207.88,61.125 209.853,59.856 211.711,58.434 C217.524,53.975 223.547,49.804 229.29,45.255 C225.081,47.591 221.126,50.361 216.973,52.797 C216.697,52.308 216.427,51.815 216.158,51.326 C219.045,49.326 222.117,47.609 225.081,45.721 C228.154892,43.7922495 231.24028,41.8818821 234.337,39.99 C234.812,39.689 235.214,39.284 235.595,38.871 C231.987,39.985 228.569,41.644 225.072,43.059 C212.998,47.925 200.848,52.598 188.78,57.484 C182.847,59.835 176.967,62.324 171.01,64.616 C169.841,65.038 168.689,65.519 167.61,66.14 C169.263,66.392 170.975,66.463 172.526,67.149 C175.110693,68.2914816 177.405574,70.0002533 179.241,72.149 C179.658,72.583 180.059,73.14 180.698,73.249 C187.789,74.474 194.505,78.079 199.324,83.446 C200.109,84.352 201.428,84.211 202.501,84.461 C203.137,81.858 204.573,79.571 206.021,77.355 C209.562,72.363 213.798,67.917 217.509,63.057 C219.599,60.298 221.774,57.557 223.251,54.409 C223.6,53.621 224.093,52.894 224.817,52.404 C223.685,57.071 221.217,61.292 218.432,65.158 C214.806,70.552 210.157,75.195 206.754,80.75 C205.655,82.368 204.943,84.197 204.04,85.923 C202.612901,85.8236857 201.187946,85.6956598 199.766,85.539 C198.567,85.44 197.943,84.294 197.184,83.52 C193.578,79.727 188.862,76.851 183.65,75.995 C182.416,75.749 181.115,75.755 179.942,75.277 C178.752,74.541 177.82,73.471 176.741,72.595 C174.859,70.874 172.582,69.532 170.061,69.045 C168.038,68.62 165.966,68.77 163.917,68.717 C162.296,68.699 160.845,67.899 159.353,67.365 C154.927,65.677 150.533,63.874 145.96,62.611 C144.632,62.221 143.087,62.206 142.044,61.178 C147.341,61.591 152.52,62.963 157.585,64.522 C159.189,64.979 160.71,65.695 162.322,66.12 C163.63,66.313 164.963,66.252 166.282,66.199 C166.142,65.642 165.995,65.088 165.851,64.534 C186.915,56.098 208.038,47.808 229.17,39.536 C230.987,38.818 232.81,38.111 234.607,37.335 C231.904,37.678 229.293,38.463 226.64,39.049 C223.691,39.75 220.748,40.462 217.796,41.142 C217.60267,40.4390153 217.448104,39.725941 217.333,39.006 C221.507,38.164 225.696,37.385 229.858,36.476 C231.471,36.136 233.118,35.928 234.68,35.385 C231.116,35.233 227.566,35.714 224.005,35.775 C212.494,36.646 200.953,37.039 189.431,37.701 C188.765,37.73 188.1,37.722 187.437,37.71 C187.438979,36.9662273 187.44998,36.2225059 187.47,35.479 C200.836,35.104 214.194,34.392 227.56,33.929 C229.337,33.926 231.093,33.603 232.869,33.553 C225.523,32.941 218.174,32.357 210.814,31.935 C208.498,31.759 206.18,31.622 203.873,31.384 C203.902,30.651 203.949,29.922 204.016,29.192 C209.606,29.763 215.193,30.361 220.801,30.763 C225.318,31.279 229.882,31.422 234.37,32.199 C234.551,31.674 234.73,31.15 234.903,30.619 C226.845,27.6 218.743,24.692 210.653,21.755 C210.849,21.087 211.057,20.424 211.28,19.765 C213.64,20.5 215.9,21.515 218.224,22.362 C222.586,24.041 226.962,25.689 231.312,27.407 C232.696,27.946 234.074,28.535 235.53,28.86 C234.910404,28.3503562 234.24642,27.8972136 233.546,27.506 C227.985,24.279 222.425,21.057 216.896,17.78 C212.977,15.406 208.929,13.237 205.086,10.739 C205.385,10.13 205.69,9.52 206.001,8.913 C213.071,13.102 220.077,17.408 227.129,21.626 C228.718,22.605 230.275,23.643 231.954,24.461 C229.401,22.072 226.42,20.207 223.694,18.026 C221.115,16.142 218.512,14.295 216.002,12.319 C216.404,11.853 216.82,11.396 217.242,10.945 C220.27,13.09 223.14,15.447 226.124,17.654 C229.123,19.935 232.022,22.362 235.146,24.475 C232.796,21.383 229.788,18.871 227.185,16.004 C226.403,15.125 225.453,14.403 224.732,13.474 C224.682,12.821 225.415,12.451 225.755,11.973 C227.786,13.808 229.671,15.799 231.597,17.745 C233.188,19.659 235.044,21.33 236.735,23.159 C237.351,23.76 237.893,24.469 238.655,24.903 C239.538,24.49 240.344,23.93 241.2,23.458 C240.505,20.928 239.414,18.534 238.632,16.03 C238.072,14.192 237.207,12.44 236.908,10.528 C237.389,10.379 237.873,10.232 238.359,10.089 C239.579,12.87 240.311,15.834 241.554,18.607 C240.895,14.802 239.822,11.082 239.036,7.304 C239.567,7.169 240.1,7.031 240.634,6.899 C241.566,10.499 242.164,14.178 243.205,17.748 C243.114,12.211 241.856,6.77 241.499,1.254 C241.985,0.858 242.665,0.882 243.254,0.729 C243.424,1.682 243.547,2.643 243.603,3.608 C243.946,8.43 244.588,13.225 245.045,18.035 C245.385,15.297 245.253,12.53 245.297,9.778 C245.347,7.896 245.251,6.02 245.139,4.141 C245.747664,4.07971123 246.357442,4.03003553 246.968,3.992 C246.936,10.051 246.848,16.115 247,22.174 C247.686,19.425 247.947,16.593 248.454,13.808 C248.988,13.908 249.524,14.017 250.061,14.128 C249.718,16.948 249.137,19.735 248.847,22.564 C249.856,20.506 250.459,18.284 251.169,16.112 C251.831,14.011 252.526,11.918 253.197,9.816 C253.816,9.907 254.437,10.004 255.059,10.115 C254.569,12.114 253.672,13.978 253.056,15.936 C252.365,18.138 251.479,20.275 250.87,22.5 C251.743,20.967 252.456,19.351 253.303,17.804 C253.824,18.05 254.352,18.293 254.874,18.548 C254.288525,19.6518181 253.707188,20.7578259 253.13,21.866 C253.704,22.151 254.279,22.45 254.845,22.76 C254.317,23.558 254.059,24.859 253.098,25.173 C251.309,24.074 249.325,22.69 247.106,23.171 C243.536,23.435 240.713,26.776 240.64,30.285 C240.399,33.122 242.161,35.898 244.658,37.173 C246.854,38.194 249.565,38.141 251.641,36.842 C254.39,35.3 255.926,31.868 255.105,28.799 C254.918,27.805 254.153,27.017 254.024,26.017 C254.534,25.261 255.287,24.724 255.944,24.106 C258.265,21.925 260.745,19.92 263.073,17.751 C263.659,17.915 264.005,18.469 264.441,18.856 C262.123,21.204 259.379,23.106 257.157,25.56 C259.218,24.496 261.015,23.004 262.97,21.764 C265.38,20.196 267.622,18.358 270.19,17.042 C270.433,17.563 270.676,18.088 270.92,18.616 C267.807,20.823 264.415,22.649 261.446,25.056 C262.463,24.713 263.427,24.232 264.356,23.696 C266.728,22.324 269.211,21.154 271.629,19.867 C273.124,19.164 274.443,18.079 276.076,17.681 C276.234,18.223 276.392,18.765 276.536,19.313 C271.515,21.998 266.359,24.422 261.364,27.154 C259.722,28.092 257.832,28.646 256.433,29.963 C258.306,29.81 260.056,29.077 261.847,28.559 C264.503,27.796 267.097,26.823 269.771,26.12 C269.97,26.706 270.163,27.295 270.351,27.887 C266.045,29.233 261.654,30.294 257.374,31.713 C262.536,31.402 267.634,30.426 272.76,29.766 C277.439,29.247 282.096,28.561 286.778,28.081 C286.91,28.649 287.05,29.218 287.191,29.79 C277.96,30.956 268.718,32.07 259.485,33.222 C259.026655,33.3106698 258.577916,33.4432821 258.145,33.618 C264.333,34.075 270.544,34.04 276.747,34.263 C276.618,34.855 276.721,35.561 276.36,36.068 C274.349,36.095 272.341,35.834 270.327,35.913 C268.487,35.708 266.64,35.67 264.79,35.667 C263.603,35.5 263.246,36.913 262.665,37.675 C269.296,39.152 275.876,40.84 282.507,42.306 C282.285377,43.0272006 282.051677,43.7446348 281.806,44.458 C276.301,43.183 270.843,41.702 265.391,40.225 C264.034,39.882 262.706,39.337 261.296,39.284 C261.044,39.609 260.833,39.964 260.622,40.313 C269.946,44.525 279.121,49.077 288.519,53.125 C288.334,53.532 288.139,53.932 287.941,54.331 L287.705,54.809 L287.587,55.048 C279.27037,51.150779 270.980509,47.1966864 262.718,43.186 C261.578,42.567 260.426,41.957 259.168,41.608 C259.133,42.045 259.104,42.485 259.089,42.922 L259.111,42.924 C260.03,43.005 260.763,43.626 261.496,44.132 C264.433,46.31 267.481,48.339 270.48,50.429 C270.615,51.024 270.017,51.458 269.782,51.941 C265.643,49.435 261.9,46.328 257.814,43.74 C255.95,46.011 254.147,48.342 252.075,50.429 C251.38,51.112 250.714,51.947 249.706,52.146 C245.391,53.093 241.337,54.896 237.169,56.315 C236.48,56.534 235.686,56.819 235.486,57.607 C231.764,67.134 228.132,76.702 224.222,86.158 C223.081,89.11 221.771,92.085 219.499,94.359 C217.884,95.869 216.325,97.44 214.719,98.962 C213.209,100.624 212.47,102.91 210.679,104.326 C209.299,105.088 207.631,104.616 206.238,104.126 C204.521,103.479 202.756,102.963 200.945,102.655 C193.948,101.139 186.874,100.005 179.798,98.923 C174.742,98.161 169.894,96.488 165.06,94.878 C165.078,98.551 164.864,102.245 164.087,105.841 C163.539,108.391 162.51,110.798 161.493,113.187 C160.411,116.133 159.587,119.17 158.409,122.08 C157.298,125.36 155.753,128.465 154.493,131.683 C153.605,133.178 154.935,134.779 156.386,135.171 C157.547,135.687 158.816,136.177 159.611,137.226 C160.323,138.161 160.226,139.431 160.786,140.433 C161.179,140.92 161.718,141.257 162.155,141.702 C162.797,142.453 162.217,143.951 163.319,144.355 C164.104,144.795 165.13,145.044 165.541,145.932 C165.819,146.633 165.793,147.404 165.872,148.145 C171.497,148.986 177.107,149.983 182.615,151.425 C187.604,152.873 192.5,154.72 197.046,157.253 C199.362,158.566 201.733,159.776 204.028,161.128 C210.99,164.985 217.099,170.64 220.86,177.707 C223.14,181.573 223.483,186.486 221.669,190.599 C220.66,192.366 219.007,193.635 217.459,194.911 C212.875,198.393 207.61,200.855 202.255,202.898 C201.261,203.317 200.171,203.435 199.104,203.312 C194.804,202.843 190.524,202.18 186.215,201.776 C180.449,201.336 174.689,200.776 168.912,200.5 C166.23,200.41 163.542,200.465 160.868,200.219 C157.491,200.14 154.123,199.788 150.744,199.841 C149.085,199.835 147.423,199.9 145.769,199.759 C143.09,199.524 140.399,199.794 137.723,199.583 C134.733,199.369 131.749,199.732 128.762,199.665 C125.734,199.691 122.703,199.606 119.675,199.703 C117.398,199.946 115.105,199.762 112.825,199.914 C108.663,200.061 104.512,200.442 100.347,200.489 C95.261,200.832 90.184,201.274 85.098,201.606 C82.173,201.746 79.309,202.403 76.407,202.737 C74.472,202.963 72.541,203.215 70.609,203.449 C68.868,203.687 67.097,203.942 65.344,203.687 C64.333,203.561 63.424,203.08 62.53,202.629 C59.593,201.078 56.527,199.756 53.731,197.947 C52.415,197.162 51.189,196.156 50.509,194.749 C48.551,190.886 47.053,186.791 45.91,182.617 C45.274,180.125 44.899,177.367 45.916,174.925 C47.824,171.484 50.547,168.547 53.666,166.17 L53.762,166.089 C57.833,162.675 62.365,159.825 67.08,157.39 C70.3512013,155.631674 73.7666155,154.155977 77.289,152.979 C79.649,152.237 81.9,151.176 84.315,150.616 C86.848,150.045 89.328,149.224 91.91,148.884 C95.322,148.43 98.693,147.603 102.152,147.577 L102.228,147.567 C105.448,147.149 108.7,146.97 111.925,146.58 C113.136,142.505 114.179,138.293 116.433,134.644 C116.844,134.084 116.31,133.477 116.12,132.947 C114.786,130.262 113.745,127.418 112.165,124.865 C109.044,120.533 107.009,115.567 104.767,110.763 C102.354,113.676 99.737,116.423 96.832,118.853 C93.827,121.48 90.468,123.64 87.194,125.903 C85.45,127.09 83.521,128.025 81.97,129.482 C80.481,130.71 79.306,132.311 77.641,133.328 C76.14,134.269 74.598,135.212 72.875,135.673 C71.691,136.001 70.459,135.766 69.269,135.611 C65.447,135.18 61.745,134.058 58.089,132.906 C51.327,130.854 44.884,127.917 38.462,125.003 C35.349,123.69 32.312,122.204 29.278,120.712 C27.701,119.993 26.174,119.132 24.494,118.66 C22.706,118.114 20.804,117.93 19.107,117.103 C17.793,116.508 16.618,115.652 15.328,115.01 C14.379,114.515 13.238,114.688 12.277,114.23 C11.128,113.427 10.436,112.161 9.583,111.076 C6.66,106.984 3.477,103.089 0.549,99.003 C0.074,98.454 0.262,97.713 0.25,97.056 C0.291,96.359 0.027,95.684 0.065,94.99 C0.388,94.298 1.056,93.656 1.859,93.659 C3.263,93.63 4.65,93.917 6.039,94.072 C7.083,94.245 8.264,94.383 9.011,95.221 C10.99,97.499 11.837,100.448 13.171,103.095 C13.449,103.816 14.314,103.719 14.935,103.874 C14.736,99.771 14.871,95.661 14.815,91.554 C14.918,90.581 13.737,90.437 13.209,89.86 C12.42,89.022 11.614,88.198 10.583,87.659 C10.846,87.131 11.125,86.612 11.412,86.099 C10.676,85.551 9.727,84.821 10.181,83.778 C10.506,82.347 12.186,82.33 13.361,82.265 C14.033,81.412 15.023,80.758 15.267,79.636 C14.024,78.991 12.517,78.487 11.825,77.162 C11.043,75.435 10.773,73.539 10.536,71.677 C10.371,70.127 10.108,68.582 10.081,67.02 C10.691,67.295 11.397,67.521 11.761,68.133 C12.995,69.81 13.265,71.924 14.062,73.803 C14.566,74.998 15.871,75.55 17.066,75.796 C18.509,75.259 19.787,73.861 21.455,74.213 C22.741,74.594 23.026,76.057 23.339,77.176 C23.586,77.05 23.832,76.921 24.078,76.795 C23.489,74.626 22.636,72.366 23.257,70.097 C23.424,69.086 24.096,68.286 24.828,67.615 C25.051,69.623 25.224,71.677 26.068,73.542 C27.651,71.094 28.636,68.28 30.477,65.988 C30.849,65.624 31.392,65.531 31.861,65.337 C31.503,66.785 30.984,68.195 30.747,69.672 C30.184,72.648 29.961,75.825 28.302,78.449 C27.56,79.662 26.323,80.418 25.089,81.052 C25.124,81.454 25.168,81.856 25.213,82.257 L25.252,82.601 C25.298,83.003 25.342,83.404 25.377,83.807 C25.544,85.531 24.855,87.207 24.975,88.931 C25.183,89.945 25.863,90.775 26.183,91.748 C26.781,93.562 26.904,95.485 26.921,97.379 C27.115,100.131 26.907,102.889 27.05,105.639 C27.068,106.99 28.024,108.119 29.14,108.77 C33.514,110.719 38.277,111.466 42.95,112.334 C47.563,113.231 52.227,113.826 56.861,114.594 C61.191,115.356 65.503,116.241 69.847,116.913 C72.089,115.614 72.637,112.862 73.253,110.552 C75.064,104.965 79.523,100.873 83.398,96.687 C83.454,94.527 83.304,92.217 84.415,90.262 C85.934,87.6 88.164,85.457 90.369,83.364 C92.831,81.222 95.797,79.776 98.822,78.607 C100.215,78.053 101.566,77.332 103.078,77.144 C102.398,78.501 100.945,79.067 99.725,79.812 C98.33,80.685 96.779,81.403 95.739,82.725 C98.558,82.573 101.449,81.764 104.23,82.673 C106.3,83.288 107.396,85.296 108.536,86.961 C108.636,83.968 108.607,80.967 109.023,77.991 C108.325,77.385 107.654,76.743 106.886,76.227 C105.954,75.602 104.635,75.957 103.776,75.224 C103.319,71.78 104.081,68.324 104.286,64.889 C103.685,63.719 102.079,63.464 101.625,62.186 C100.816,60.055 100.332,57.818 99.69,55.632 C97.383,54.993 95.308,53.527 94.088,51.452 C93.051,49.649 92.722,47.565 91.975,45.645 C91.594,44.636 91.022,43.719 90.556,42.752 C91.778,42.787 93.065,42.901 94.135,43.546 C94.912,44.041 95.554,44.707 96.237,45.319 C96.348,44.859 96.466,44.405 96.586,43.948 C97.726,45.097 98.813,46.436 100.423,46.929 C102.639,47.735 104.916,46.753 107.135,46.501 C106.183,48.303 104.096,48.693 102.369,49.388 C105.558,50.622 108.885,48.834 112.136,49.277 C113.775,49.435 115.061,51.068 116.779,50.561 C116.422,49.643 116.205,48.374 115.152,48.01 C113.429,47.855 111.764,48.734 110.04,48.491 C109.202,48.339 108.645,47.618 108.393,46.85 C107.833,45.487 107.865,43.992 107.807,42.546 C108.604,43.197 109.234,44.25 110.336,44.376 C112.643,44.288 114.941,43.174 117.248,43.901 C119.382,44.405 120.909,46.137 122.944,46.864 C122.343,44.806 120.232,43.778 118.377,43.086 C116.68,42.415 114.801,42.711 113.095,42.121 C115.029,41.119 117.289,41.122 119.394,41.453 C121.246,41.682 122.615,43.089 124.31,43.74 C124.456,43.505 124.746,43.039 124.89,42.804 C123.336,41.456 121.329,40.849 119.373,40.342 C118.136,40.02 116.791,40.02 115.668,39.34 C118.822,38.709 122.281,38.727 125.148,40.363 C126.681,41.236 128.402,42.459 130.24,41.711 C129.987,40.483 129.501,39.269 128.592,38.378 C127.61,37.423 126.511,36.57 125.728,35.429 C128.402,35.843 130.339,37.974 132.142,39.809 C134.267,42.218 135.897,45.053 137.087,48.028 C137.638,49.839 138.556,51.554 138.746,53.463 C138.984,55.684 140.083,57.815 139.79,60.084 C138.893,62.051 137.594,63.819 136.765,65.827 C136.041,67.53 135.144,69.212 134.894,71.068 C134.812,73.48 136.19,75.608 137.618,77.437 C138.377,78.425 139.523,78.982 140.602,79.551 C139.731,81.521 138.072,82.939 136.548,84.39 C135.287,85.566 133.745,86.518 132.904,88.072 C132.57,88.6 132.338,89.321 131.647,89.461 C130.087,89.96 128.372,90.563 127.49,92.055 C126.323,93.999 126.74,96.332 126.86,98.469 C124.491,100.524 121.622,101.951 119.461,104.25 C118.406,105.334 117.577,106.735 117.5,108.277 C117.667,109.514 118.172,110.69 118.822,111.748 C119.414,112.73 120.663,112.95 121.715,113.058 C125.89,113.36 129.879,111.853 133.918,111.065 C136.923,110.179 139.968,111.305 142.955,111.692 C146.825,112.434 151.081,112.9 154.727,111.071 C157.738,109.306 159.757,106.199 160.704,102.889 C161.777,99.108 162.061,95.16 162.299,91.255 C162.439,89.2 162.815,87.113 163.8,85.281 C164.749,83.555 166.291,82.28 167.552,80.794 C169.7,78.073 170.606,74.647 171.119,71.282 C173.452,73.421 175.217,76.109 177.556,78.249 C178.148,78.794 178.986,78.85 179.746,78.967 C184.037,79.516 188.387,80.152 192.412,81.814 C194.20629,82.5246389 195.825894,83.6144945 197.16,85.009 C197.832,85.621 198.415,86.504 199.406,86.577 C201.619,86.911 203.844,87.137 206.062,87.424 C206.883,85.179 208.144,83.124 209.583,81.227 C212.412,77.244 215.651,73.568 218.473,69.579 C220.358527,66.355074 222.205657,63.1088445 224.014,59.841 C225.96,56.297 227.534,52.557 229.686,49.127 C230.395,47.978 231.726,47.19 233.095,47.292 C235.003,47.404 236.911,47.547 238.822,47.682 C240.194,47.782 241.601,47.67 242.944,48.025 C243.354,48.35 243.679,48.767 244.043,49.151 C244.204,48.597 244.356,48.04 244.515,47.483 C245.353,47.791 246.153,48.186 246.901,48.676 C247.106,48.019 247.308,47.363 247.508,46.706 C249.026,46.281 250.603,45.909 251.913,44.988 C253.449,44.039 254.677,42.678 255.615,41.145 L255.63,41.096 L255.63,41.096 Z M100.367,197.212 C101.263919,195.825615 102.286208,194.524489 103.421,193.325 C103.873,194.248 103.908,195.353 103.272,196.209 C102.721,197.258 101.387,197.241 100.367,197.212 L100.367,197.212 Z M164.14,151.548 C164.392,150.991 165.072,151.147 165.564,151.153 C169.63,151.584 173.675,152.223 177.67,153.09 C183.964,154.362 190.187,156.159 196.011,158.888 C198.535,160.146 201.156,161.224 203.536,162.755 C205.303,163.918 207.176,164.927 208.812,166.275 C210.278,167.453 211.84,168.509 213.241,169.766 C214.88,171.37 216.641,172.867 217.981,174.746 C216.005,174.937 213.974,175.04 212.104,175.758 C210.407,176.411 209.902,178.46 208.325,179.281 C207.912,179.448 207.452,179.278 207.036,179.219 C204.547,178.601 202.278,177.235 199.716,176.88 C195.026,176.265 190.351,175.535 185.635,175.136 C182.246,174.852 178.893,174.116 175.489,174.102 C176.498,174.884 177.793,175.04 178.998,175.333 C184.148,176.672 188.733,179.771 192.224,183.754 C193.476,185.105 194.478,186.674 195.252,188.342 C195.639,189.206 195.926,190.174 195.765,191.132 C195.39,192.053 194.554,192.715 193.696,193.169 C190.735,194.749 187.361,195.259 184.078,195.708 C177.673,196.112 171.213,196.476 164.826,195.679 C160.508,195.245 156.257,194.324 152.004,193.492 C147.962,192.774 144.019,191.581 139.986,190.818 C138.11,190.493 136.252,189.954 134.335,189.977 C132.872,189.995 131.406,189.763 129.949,189.951 C126.807,190.335 123.635,190.001 120.481,190.209 C118.658,190.323 116.832,190.147 115.006,190.179 C112.544,190.182 110.24,189.218 107.862,188.737 C106.063,188.371 104.529,189.605 103.046,190.411 C100.672,191.604 99.584,194.245 97.363,195.652 C96.624,194.975 95.818,194.125 96.041,193.029 C96.348,191.54 97.213,189.857 98.819,189.482 C100.071,189.159 101.393,188.901 102.404,188.025 C104.717,186.184 107.555,184.745 110.594,184.979 C114.933,184.997 118.298,188.485 122.595,188.711 C126.253,188.767 129.703,187.313 132.942,185.762 C140.156,182.599 147.179,178.692 155.018,177.285 C154.859,178.235 154.675,179.184 154.59,180.149 C155.618,179.222 156.501,178.094 157.744,177.434 C160.138,176.098 162.844,175.52 165.473,174.837 C167.596,174.301 169.867,174.532 171.931,173.732 C169.603,173.161 167.179,173.228 164.828,172.791 C162.917,172.422 160.775,172.592 159.118,171.416 C157.348,170.021 156.515,167.544 157.146,165.369 C157.911,162.889 159.13,160.585 160.326,158.296 C161.475,155.98 162.718,153.709 164.14,151.548 L164.14,151.548 Z M79.368,194.049 C81.979,193.565 84.497,192.609 87.144,192.331 C88.868,192.448 90.574,192.768 92.268,193.099 C93.446,193.187 93.35,194.629 93.575,195.491 C90.451,195.573 87.323,195.687 84.213,196.01 C82.354,196.083 80.496,196.019 78.638,196.036 C76.348,195.998 74.038,196.189 71.776,195.755 C74.288,195.113 76.858,194.72 79.368,194.049 L79.368,194.049 Z M153.12,133.824 C150.277,134.664 147.526,135.807 144.623,136.449 C140.925,137.421 137.147,137.786 133.355,137.79 L133.306,137.79 C128.919,137.79 124.511,137.307 120.184,136.717 L120.089,136.704 C119.584,138.047 118.91,139.357 118.755,140.802 C118.685,141.966 119.54,142.913 120.399,143.587 C123.245,145.74 126.822,146.791 130.378,146.789 L130.403,146.789 C131.203445,146.787189 132.002881,146.732067 132.796,146.624 C136.073,146.243 139.309,145.501 142.445,144.487 C144.134,143.959 145.714,143.13 147.446,142.74 C146.344,143.775 144.993,144.469 143.671,145.176 C140.981,146.633 138.106,147.718 135.187,148.604 L135.152,148.614 C129.24,150.2 123.096,150.558 117.017,150.939 C116.940308,150.947704 116.863184,150.952044 116.786,150.952 L116.776,150.952 C115.262,150.949 114.322,149.249 112.828,149.238 L112.818,149.238 C112.737,149.238 112.654,149.243 112.57,149.253 L112.522,149.256 L112.506,149.257 L112.474,149.258 L112.454,149.259 L112.426,149.261 L112.405,149.262 L112.377,149.264 L112.356,149.265 L112.329,149.266 L112.307,149.267 L112.281,149.269 L112.259,149.27 L112.233,149.271 L112.211,149.272 L112.185,149.274 L112.162,149.275 L112.137,149.276 L112.114,149.277 L112.089,149.279 L112.066,149.28 L112.041,149.281 L112.018,149.282 L111.992,149.283 L111.969,149.285 L111.944,149.286 L111.921,149.287 L111.896,149.288 L111.873,149.289 L111.848,149.29 L111.825,149.292 L111.8,149.293 L111.777,149.294 L111.752,149.295 L111.728,149.296 L111.704,149.297 L111.68,149.299 L111.656,149.3 L111.632,149.301 L111.607,149.302 L111.584,149.303 L111.559,149.304 L111.536,149.305 L111.511,149.306 L111.488,149.308 L111.463,149.309 L111.439,149.31 L111.417,149.311 L111.368,149.313 L111.319,149.315 L111.272,149.317 L111.222,149.32 L111.176,149.322 L111.126,149.324 L111.079,149.326 L111.03,149.328 L110.983,149.33 L110.933,149.332 L110.886,149.334 L110.837,149.336 L110.79,149.338 L110.741,149.341 L110.694,149.343 L110.645,149.345 L110.597,149.347 L110.548,149.349 L110.501,149.351 L110.452,149.353 L110.404,149.354 L110.356,149.356 L110.308,149.358 L110.259,149.36 L110.212,149.362 L110.163,149.364 L110.115,149.366 L110.067,149.368 L110.019,149.37 L109.97,149.372 L109.922,149.374 L109.874,149.376 L109.826,149.378 L109.778,149.38 L109.729,149.381 L109.685,149.383 L109.581,149.387 L109.487,149.391 L109.383,149.395 L109.292,149.398 L109.157,149.404 L109.09,149.406 L109.038,149.408 L108.926,149.413 L108.915,149.413 L108.897,149.414 L108.828,149.416 L108.734,149.42 L108.721,149.421 L108.704,149.421 L108.632,149.424 L108.542,149.428 L108.52,149.428 L108.51,149.429 L108.48,149.43 L108.446,149.431 L108.43,149.432 L108.414,149.433 L108.384,149.434 L108.35,149.435 L108.334,149.436 L108.317,149.436 L108.287,149.438 L108.254,149.439 L108.237,149.44 L108.22,149.44 L108.191,149.441 L108.158,149.443 L108.141,149.443 L108.124,149.444 L108.094,149.445 L108.062,149.447 L108.045,149.447 L108.027,149.448 L107.998,149.449 L107.967,149.45 L107.948,149.451 L107.93,149.452 L107.902,149.453 L107.871,149.454 L107.852,149.455 L107.834,149.456 L107.805,149.457 L107.775,149.458 L107.756,149.459 L107.737,149.46 L107.709,149.461 L107.679,149.462 L107.66,149.463 L107.64,149.464 L107.613,149.465 L107.583,149.466 L107.563,149.467 L107.544,149.468 L107.516,149.469 L107.487,149.47 L107.467,149.471 L107.447,149.472 L107.42,149.473 L107.391,149.474 L107.371,149.475 L107.35,149.476 L107.324,149.477 L107.295,149.479 L107.274,149.479 L107.254,149.48 L107.228,149.481 L107.199,149.483 L107.178,149.484 L107.157,149.485 L107.131,149.486 L107.104,149.487 L107.082,149.488 L107.06,149.489 L107.035,149.49 L107.008,149.491 L106.986,149.492 L106.964,149.493 L106.939,149.494 L106.912,149.495 L106.889,149.497 L106.817,149.5 L106.816,149.5 L106.787,149.501 L106.771,149.502 L106.768,149.502 L106.737,149.503 L106.722,149.504 L106.72,149.504 L106.688,149.506 L106.673,149.506 L106.672,149.507 L106.638,149.508 L106.626,149.509 L106.624,149.509 L106.586,149.511 L106.576,149.511 L106.532,149.513 L106.529,149.513 L106.336,149.523 L106.333,149.523 L106.289,149.525 L106.279,149.525 L106.241,149.527 L106.239,149.527 L106.228,149.528 L106.193,149.53 L106.191,149.53 L106.178,149.531 L106.145,149.532 L106.143,149.532 L106.128,149.533 L106.097,149.535 L106.094,149.535 L106.079,149.536 L106.049,149.537 L106.046,149.537 L106.03,149.538 L106.001,149.54 L105.998,149.54 L105.981,149.541 L105.953,149.542 L105.95,149.542 L105.933,149.543 L105.905,149.545 L105.901,149.545 L105.884,149.546 L105.858,149.547 L105.853,149.547 L105.836,149.548 L105.81,149.55 L105.805,149.55 L105.787,149.551 L105.762,149.552 L105.759,149.552 L105.756,149.553 L105.739,149.554 L105.714,149.555 L105.708,149.555 L105.69,149.556 L105.666,149.558 L105.66,149.558 L105.642,149.559 L105.618,149.56 L105.614,149.56 L105.612,149.561 L105.594,149.562 L105.57,149.563 L105.563,149.563 L105.546,149.564 L105.522,149.566 L105.515,149.566 L105.497,149.567 L105.474,149.568 L105.47,149.568 L105.467,149.569 L105.449,149.57 L105.426,149.571 L105.419,149.571 L105.401,149.572 L105.379,149.574 L105.37,149.574 L105.353,149.575 L105.331,149.576 L105.326,149.577 L105.322,149.577 L105.305,149.578 L105.283,149.579 L105.278,149.58 L105.274,149.58 L105.257,149.581 L105.235,149.582 L105.23,149.582 L105.226,149.583 L105.208,149.584 L105.187,149.585 L105.182,149.585 L105.177,149.586 L105.16,149.587 L105.139,149.588 L105.129,149.588 L105.112,149.589 L105.091,149.591 L105.081,149.591 L105.064,149.592 L105.043,149.594 L105.032,149.594 L105.016,149.595 L104.996,149.597 L104.984,149.597 L104.968,149.598 L104.948,149.6 L104.936,149.6 L104.92,149.601 L104.9,149.603 L104.888,149.603 L104.871,149.604 L104.852,149.606 L104.84,149.606 L104.823,149.607 L104.804,149.609 L104.797,149.609 L104.791,149.61 L104.775,149.611 L104.756,149.612 L104.749,149.612 L104.743,149.613 L104.727,149.614 L104.708,149.615 L104.701,149.615 L104.695,149.616 L104.679,149.617 L104.66,149.618 L104.653,149.618 L104.647,149.619 L104.631,149.62 L104.613,149.621 L104.605,149.622 L104.598,149.622 L104.583,149.623 L104.565,149.624 L104.557,149.625 L104.55,149.625 L104.535,149.626 L104.517,149.628 L104.509,149.628 L104.502,149.629 L104.487,149.63 L104.469,149.631 L104.461,149.631 L104.454,149.632 L104.439,149.633 L104.421,149.634 L104.413,149.635 L104.405,149.635 L104.391,149.636 L104.373,149.637 L104.365,149.638 L104.357,149.639 L104.343,149.64 L104.326,149.641 L104.317,149.641 L104.309,149.642 L104.294,149.643 L104.278,149.644 L104.269,149.645 L104.261,149.645 L104.246,149.646 L104.23,149.648 L104.221,149.648 L104.213,149.649 L104.198,149.65 L104.182,149.651 L104.173,149.652 L104.164,149.652 L104.15,149.653 L104.134,149.654 L104.125,149.655 L104.116,149.656 L104.102,149.657 L104.086,149.658 L104.077,149.659 L104.068,149.659 L104.054,149.66 L104.039,149.661 L104.029,149.662 L104.02,149.663 L104.006,149.664 L103.991,149.665 L103.98,149.666 L103.971,149.666 L103.958,149.667 L103.943,149.669 L103.932,149.669 L103.923,149.67 L103.91,149.671 L103.895,149.672 L103.884,149.673 L103.875,149.674 L103.862,149.675 L103.847,149.676 L103.836,149.677 L103.827,149.677 L103.814,149.678 L103.799,149.679 L103.788,149.68 L103.779,149.681 L103.766,149.682 L103.752,149.683 L103.74,149.684 L103.73,149.685 L103.718,149.686 L103.704,149.687 L103.692,149.688 L103.682,149.689 L103.67,149.69 L103.656,149.691 L103.644,149.692 L103.634,149.692 L103.622,149.693 L103.608,149.695 L103.596,149.695 L103.586,149.696 L103.574,149.697 L103.56,149.698 L103.548,149.699 L103.538,149.7 L103.526,149.701 L103.513,149.702 L103.5,149.703 L103.49,149.704 L103.478,149.705 L103.465,149.706 L103.452,149.707 L103.441,149.708 L103.43,149.709 L103.417,149.71 L103.404,149.711 L103.393,149.712 L103.382,149.713 L103.369,149.714 L103.356,149.715 L103.345,149.716 L103.334,149.717 L103.321,149.718 L103.308,149.719 L103.297,149.72 L103.286,149.721 L103.274,149.722 L103.26,149.723 L103.249,149.724 L103.238,149.725 L103.226,149.726 L103.212,149.727 L103.201,149.728 L103.19,149.729 L103.178,149.73 L103.164,149.732 L103.152,149.733 L103.142,149.734 L103.13,149.735 L103.116,149.736 L103.104,149.737 L103.094,149.738 L103.082,149.739 L103.068,149.74 L103.056,149.741 L103.046,149.742 L103.035,149.743 L103.02,149.744 L103.008,149.745 L102.998,149.746 L102.987,149.747 L102.973,149.749 L102.96,149.75 L102.95,149.751 L102.939,149.752 L102.925,149.753 L102.912,149.754 L102.902,149.755 L102.891,149.756 L102.877,149.757 L102.863,149.759 L102.854,149.759 L102.844,149.76 L102.829,149.762 L102.815,149.763 L102.806,149.764 L102.796,149.765 L102.781,149.766 L102.767,149.768 L102.758,149.768 L102.748,149.769 L102.733,149.771 L102.719,149.772 L102.71,149.773 L102.7,149.774 L102.685,149.775 L102.671,149.777 L102.662,149.778 L102.652,149.778 L102.637,149.78 L102.623,149.781 L102.614,149.782 L102.605,149.783 L102.589,149.785 L102.575,149.786 L102.566,149.787 L102.557,149.788 L102.541,149.789 L102.527,149.791 L102.518,149.791 L102.509,149.792 L102.493,149.794 L102.478,149.795 L102.47,149.796 L102.461,149.797 L102.445,149.799 L102.43,149.8 L102.422,149.801 L102.414,149.802 L102.397,149.804 L102.382,149.805 L102.375,149.806 L102.366,149.807 L102.349,149.808 L102.334,149.81 L102.327,149.811 L102.318,149.812 L102.301,149.813 L102.286,149.815 L102.279,149.816 L102.271,149.816 L102.253,149.818 L102.238,149.82 L102.231,149.821 L102.223,149.821 L102.205,149.823 L102.19,149.825 L102.183,149.825 L102.175,149.826 L102.157,149.828 L102.142,149.83 L102.135,149.831 L102.127,149.831 L102.109,149.833 L102.094,149.835 L102.087,149.836 L102.08,149.836 L102.062,149.838 L102.045,149.84 L102.039,149.841 L102.032,149.841 L102.014,149.843 L101.997,149.845 L101.991,149.846 L101.984,149.847 L101.966,149.849 L101.949,149.85 L101.943,149.851 L101.937,149.852 L101.918,149.854 L101.901,149.856 L101.895,149.856 L101.889,149.857 L101.87,149.859 L101.853,149.861 L101.847,149.862 L101.841,149.862 L101.822,149.864 L101.805,149.866 L101.8,149.867 L101.793,149.868 L101.774,149.87 L101.757,149.872 L101.752,149.872 L101.746,149.873 L101.726,149.875 L101.709,149.877 L101.704,149.878 L101.698,149.878 L101.678,149.881 L101.661,149.883 L101.656,149.883 L101.65,149.884 L101.63,149.886 L101.613,149.888 L101.608,149.889 L101.603,149.889 L101.582,149.892 L101.565,149.894 L101.56,149.894 L101.555,149.895 L101.535,149.897 L101.517,149.9 L101.512,149.9 L101.507,149.901 L101.487,149.903 L101.469,149.905 L101.464,149.906 L101.46,149.906 L101.439,149.909 L101.421,149.911 L101.416,149.911 L101.412,149.912 L101.391,149.915 L101.373,149.917 L101.369,149.917 L101.364,149.918 L101.343,149.92 L101.324,149.923 L101.321,149.923 L101.317,149.924 L101.295,149.926 L101.276,149.928 L101.273,149.929 L101.269,149.929 L101.247,149.932 L101.228,149.934 L101.225,149.935 L101.221,149.935 L101.199,149.938 L101.18,149.94 L101.177,149.941 L101.174,149.941 L101.151,149.944 L101.132,149.946 L101.129,149.947 L101.126,149.947 L101.104,149.95 L101.084,149.952 L101.081,149.953 L101.078,149.953 L101.056,149.956 L101.036,149.959 L101.031,149.959 L101.008,149.962 L100.988,149.965 L100.983,149.965 L100.96,149.969 L100.94,149.971 L100.938,149.971 L100.935,149.972 L100.912,149.975 L100.892,149.977 L100.89,149.978 L100.888,149.978 L100.864,149.981 L100.844,149.984 L100.84,149.984 L100.816,149.987 L100.796,149.99 L100.794,149.99 L100.792,149.991 L100.768,149.994 L100.748,149.997 L100.745,149.997 L100.72,150 L100.7,150.003 L100.697,150.003 L100.672,150.007 L100.652,150.01 L100.65,150.01 L100.624,150.013 L100.604,150.016 L100.603,150.016 L100.602,150.017 L100.576,150.02 L100.556,150.023 L100.554,150.023 L100.528,150.027 L100.508,150.03 L100.507,150.03 L100.479,150.034 L100.46,150.036 L100.459,150.037 L100.43,150.041 L100.412,150.043 L100.379,150.048 L100.364,150.05 L100.316,150.057 L100.221,150.071 C92.033,151.185 83.782,152.513 76.058,155.561 C73.59,156.619 71.037,157.478 68.61,158.636 C63.861,161.005 59.174,163.613 55.056,166.981 L54.965,167.059 L54.921,167.097 L54.905,167.111 L54.876,167.136 L54.857,167.152 L54.831,167.174 L54.811,167.191 L54.786,167.213 L54.765,167.23 L54.741,167.251 L54.72,167.269 L54.696,167.289 L54.674,167.307 L54.651,167.327 L54.629,167.346 L54.606,167.366 L54.584,167.384 L54.561,167.404 L54.538,167.423 L54.515,167.442 L54.493,167.461 L54.47,167.48 L54.448,167.499 L54.425,167.518 L54.402,167.537 L54.38,167.556 L54.357,167.576 L54.335,167.594 L54.312,167.614 L54.289,167.632 L54.266,167.652 L54.244,167.671 L54.221,167.69 L54.199,167.709 L54.175,167.728 L54.156,167.745 L54.106,167.786 L54.062,167.823 L54.013,167.865 L53.97,167.9 L53.792,168.05 L53.782,168.059 L53.753,168.083 L53.71,168.119 L53.701,168.126 L53.69,168.135 L53.66,168.161 L53.62,168.194 L53.604,168.207 L53.599,168.212 L53.588,168.221 L53.575,168.232 L53.564,168.241 L53.553,168.251 L53.542,168.259 L53.53,168.27 L53.519,168.279 L53.507,168.289 L53.497,168.298 L53.485,168.308 L53.473,168.318 L53.462,168.327 L53.452,168.336 L53.44,168.345 L53.428,168.356 L53.416,168.366 L53.406,168.374 L53.395,168.383 L53.383,168.394 L53.37,168.404 L53.361,168.412 L53.35,168.421 L53.337,168.432 L53.325,168.443 L53.316,168.45 L53.305,168.459 L53.292,168.47 L53.279,168.481 L53.27,168.489 L53.261,168.497 L53.247,168.508 L53.234,168.52 L53.225,168.527 L53.216,168.535 L53.202,168.547 L53.188,168.558 L53.18,168.565 L53.171,168.573 L53.156,168.585 L53.142,168.597 L53.135,168.604 L53.126,168.611 L53.111,168.623 L53.097,168.635 L53.089,168.642 L53.081,168.649 L53.066,168.662 L53.051,168.674 L53.044,168.68 L53.037,168.687 L53.021,168.7 L53.006,168.713 L52.999,168.719 L52.992,168.725 L52.976,168.738 L52.961,168.751 L52.954,168.757 L52.947,168.763 L52.931,168.777 L52.915,168.79 L52.909,168.795 L52.902,168.801 L52.886,168.815 L52.87,168.829 L52.864,168.834 L52.858,168.839 L52.841,168.854 L52.824,168.868 L52.819,168.872 L52.813,168.877 L52.796,168.892 L52.779,168.907 L52.771,168.913 L52.769,168.916 L52.766,168.918 C52.7527539,168.929048 52.7397508,168.940384 52.727,168.952 L52.724,168.954 L52.718,168.959 L52.711,168.965 L52.707,168.969 L52.702,168.973 L52.695,168.979 L52.689,168.984 L52.684,168.988 L52.68,168.992 L52.673,168.998 L52.666,169.004 L52.662,169.008 L52.657,169.011 L52.65,169.017 L52.644,169.023 L52.639,169.027 L52.635,169.031 L52.628,169.037 L52.621,169.043 L52.617,169.046 L52.613,169.05 L52.606,169.056 L52.598,169.062 L52.595,169.066 L52.591,169.069 L52.583,169.076 L52.576,169.082 L52.572,169.085 L52.568,169.088 L52.561,169.095 L52.553,169.101 L52.55,169.104 L52.546,169.108 L52.538,169.114 L52.531,169.121 L52.528,169.124 L52.524,169.127 L52.516,169.134 L52.508,169.141 L52.505,169.143 L52.502,169.146 L52.494,169.153 L52.486,169.16 L52.483,169.163 L52.48,169.165 L52.471,169.173 L52.463,169.18 L52.461,169.182 L52.458,169.185 L52.449,169.192 L52.441,169.199 L52.438,169.202 L52.436,169.204 L52.427,169.212 L52.418,169.219 L52.416,169.221 L52.413,169.223 L52.405,169.231 L52.396,169.239 L52.394,169.241 L52.391,169.243 L52.382,169.251 L52.374,169.258 L52.371,169.26 L52.369,169.262 L52.36,169.27 L52.351,169.278 L52.349,169.28 L52.347,169.281 L52.338,169.29 L52.329,169.298 L52.327,169.299 L52.325,169.301 L52.315,169.309 L52.306,169.317 L52.305,169.319 L52.303,169.32 L52.293,169.329 L52.284,169.337 L52.283,169.338 L52.281,169.339 L52.271,169.348 L52.262,169.357 L52.26,169.358 L52.259,169.359 L52.249,169.368 L52.239,169.376 L52.238,169.377 L52.237,169.378 L52.226,169.388 L52.217,169.396 L52.216,169.397 L52.215,169.398 L52.204,169.407 L52.195,169.416 L52.194,169.417 L52.193,169.417 L52.182,169.427 L52.172,169.436 L52.171,169.437 L52.159,169.447 L52.15,169.455 L52.15,169.456 L52.149,169.456 L52.136,169.468 L52.128,169.475 L52.127,169.476 L52.11,169.492 L52.105,169.495 L52.102,169.498 L52.084,169.515 L52.083,169.515 L52.075,169.522 L52.062,169.534 L52.061,169.534 L52.061,169.535 L52.052,169.543 L52.04,169.554 L52.039,169.554 L52.039,169.555 L52.029,169.563 L52.018,169.573 L52.017,169.574 L52.017,169.575 L52.007,169.583 L51.996,169.593 L51.995,169.594 L51.994,169.594 L51.985,169.603 L51.974,169.613 L51.973,169.613 L51.972,169.614 L51.963,169.623 L51.953,169.632 L51.951,169.633 L51.95,169.634 L51.941,169.643 L51.931,169.652 L51.929,169.653 L51.928,169.654 L51.919,169.663 L51.909,169.672 L51.908,169.673 L51.906,169.674 L51.897,169.682 L51.887,169.691 L51.886,169.693 L51.884,169.694 L51.875,169.702 L51.866,169.711 L51.864,169.713 L51.862,169.714 L51.853,169.722 L51.844,169.731 L51.842,169.732 L51.84,169.734 L51.831,169.742 L51.822,169.75 L51.82,169.752 L51.818,169.754 L51.809,169.762 L51.801,169.77 L51.798,169.772 L51.796,169.775 L51.788,169.782 L51.779,169.79 L51.776,169.792 L51.774,169.795 L51.766,169.802 L51.757,169.81 L51.755,169.812 L51.752,169.815 L51.744,169.822 L51.736,169.83 L51.733,169.832 L51.73,169.835 L51.722,169.842 L51.714,169.849 L51.711,169.852 L51.708,169.855 L51.7,169.862 L51.693,169.869 L51.689,169.872 L51.686,169.875 L51.679,169.882 L51.671,169.889 L51.668,169.892 L51.664,169.895 L51.657,169.902 L51.649,169.909 L51.646,169.912 L51.642,169.916 L51.635,169.922 L51.628,169.929 L51.624,169.932 L51.62,169.936 L51.614,169.942 L51.606,169.949 L51.603,169.952 L51.599,169.956 L51.592,169.962 L51.585,169.969 L51.581,169.973 L51.577,169.976 L51.57,169.982 L51.564,169.989 L51.559,169.993 L51.555,169.997 L51.549,170.003 L51.542,170.009 L51.538,170.013 L51.533,170.017 L51.527,170.023 L51.521,170.029 L51.516,170.033 L51.512,170.037 L51.505,170.043 L51.499,170.049 L51.495,170.053 L51.49,170.058 L51.484,170.063 L51.478,170.069 L51.473,170.074 L51.468,170.078 L51.462,170.083 L51.457,170.089 L51.452,170.094 L51.446,170.099 L51.441,170.104 L51.435,170.109 L51.43,170.114 L51.425,170.119 L51.419,170.124 L51.414,170.129 L51.409,170.134 L51.403,170.139 L51.398,170.144 L51.393,170.149 L51.387,170.155 L51.382,170.16 L51.377,170.165 L51.371,170.169 L51.366,170.175 L51.36,170.18 L51.355,170.185 L51.35,170.19 L51.344,170.195 L51.338,170.201 L51.334,170.205 L51.329,170.21 L51.323,170.216 L51.317,170.221 L51.312,170.226 L51.308,170.23 L51.302,170.236 L51.295,170.242 L51.291,170.246 L51.287,170.25 L51.28,170.257 L51.274,170.263 L51.27,170.267 L51.266,170.271 L51.259,170.277 L51.252,170.283 L51.248,170.287 L51.244,170.291 L51.238,170.298 L51.231,170.304 L51.227,170.308 L51.223,170.311 L51.216,170.318 L51.21,170.325 L51.206,170.328 L51.202,170.332 L51.195,170.339 L51.188,170.345 L51.185,170.349 L51.181,170.352 L51.174,170.359 L51.167,170.366 L51.164,170.369 L51.16,170.372 L51.153,170.38 L51.146,170.387 L51.142,170.39 L51.139,170.393 L51.132,170.4 L51.124,170.408 L51.121,170.41 L51.118,170.413 L51.11,170.421 L51.103,170.428 L51.1,170.431 L51.097,170.434 L51.089,170.442 L51.082,170.449 L51.079,170.452 L51.076,170.454 L51.068,170.462 L51.06,170.47 L51.058,170.472 L51.056,170.475 L51.047,170.483 L51.039,170.491 L51.037,170.493 L51.035,170.495 L51.026,170.504 L51.018,170.512 L51.016,170.514 L51.014,170.516 L51.005,170.525 L50.997,170.533 L50.995,170.535 L50.993,170.537 L50.984,170.545 L50.976,170.554 L50.974,170.555 L50.972,170.557 L50.963,170.566 L50.955,170.575 L50.953,170.576 L50.951,170.578 L50.942,170.587 L50.934,170.596 L50.932,170.597 L50.931,170.599 L50.921,170.608 L50.913,170.617 L50.911,170.618 L50.91,170.619 L50.9,170.629 L50.892,170.638 L50.89,170.639 L50.889,170.64 L50.879,170.65 L50.871,170.659 L50.87,170.66 L50.869,170.661 L50.858,170.671 L50.85,170.68 L50.849,170.681 L50.848,170.682 L50.838,170.692 L50.829,170.701 L50.828,170.702 L50.827,170.702 L50.816,170.714 L50.808,170.722 L50.807,170.723 L50.795,170.735 L50.787,170.743 L50.787,170.744 L50.786,170.744 L50.773,170.757 L50.766,170.765 L50.747,170.785 L50.745,170.786 L50.744,170.787 L50.725,170.807 L50.718,170.815 L50.704,170.828 L50.704,170.829 L50.696,170.837 L50.684,170.849 L50.683,170.85 L50.675,170.859 L50.664,170.87 L50.663,170.871 L50.662,170.871 L50.654,170.88 L50.643,170.891 L50.643,170.892 L50.642,170.893 L50.633,170.902 L50.623,170.912 L50.622,170.913 L50.621,170.914 L50.613,170.923 L50.603,170.933 L50.602,170.935 L50.601,170.936 L50.592,170.945 L50.583,170.954 L50.581,170.956 L50.58,170.957 L50.572,170.966 L50.562,170.976 L50.561,170.977 L50.559,170.979 L50.551,170.987 L50.542,170.997 L50.541,170.999 L50.539,171 L50.531,171.009 L50.522,171.018 L50.52,171.02 L50.519,171.022 L50.511,171.03 L50.502,171.039 L50.5,171.041 L50.498,171.044 L50.49,171.052 L50.482,171.061 L50.48,171.063 L50.478,171.065 L50.47,171.073 L50.462,171.082 L50.46,171.085 L50.457,171.087 L50.45,171.095 L50.442,171.104 L50.439,171.106 L50.437,171.109 L50.43,171.116 L50.422,171.125 L50.419,171.128 L50.417,171.13 L50.409,171.138 L50.402,171.146 L50.399,171.149 L50.396,171.152 L50.389,171.16 L50.382,171.168 L50.379,171.171 L50.376,171.174 L50.369,171.181 L50.362,171.189 L50.359,171.193 L50.356,171.196 L50.349,171.203 L50.342,171.211 L50.339,171.214 L50.336,171.218 L50.329,171.225 L50.322,171.232 L50.319,171.236 L50.316,171.24 L50.309,171.247 L50.302,171.254 L50.299,171.258 L50.296,171.262 L50.289,171.268 L50.283,171.276 L50.279,171.28 L50.276,171.284 L50.269,171.29 L50.263,171.297 L50.259,171.302 L50.255,171.306 L50.25,171.312 L50.243,171.319 L50.239,171.323 L50.235,171.328 L50.23,171.334 L50.224,171.341 L50.22,171.345 L50.216,171.35 L50.21,171.356 L50.204,171.363 L50.2,171.367 L50.196,171.372 L50.19,171.378 L50.184,171.384 L50.18,171.389 L50.176,171.394 L50.17,171.4 L50.165,171.406 L50.16,171.411 L50.156,171.416 L50.151,171.422 L50.145,171.428 L50.141,171.433 L50.136,171.438 L50.131,171.444 L50.126,171.45 L50.121,171.455 L50.116,171.461 L50.111,171.466 L50.106,171.472 L50.101,171.478 L50.097,171.483 L50.092,171.488 L50.087,171.494 L50.082,171.5 L50.077,171.505 L50.072,171.511 L50.068,171.516 L50.062,171.522 L50.057,171.528 L50.053,171.533 L50.048,171.538 L50.043,171.544 L50.038,171.55 L50.033,171.555 L50.029,171.56 L50.023,171.566 L50.018,171.573 L50.014,171.577 L50.01,171.582 L50.004,171.589 L49.998,171.595 L49.994,171.6 L49.99,171.604 L49.985,171.611 L49.979,171.618 L49.975,171.622 L49.971,171.626 L49.965,171.633 L49.959,171.64 L49.956,171.644 L49.952,171.649 L49.946,171.656 L49.94,171.663 L49.936,171.667 L49.933,171.671 L49.927,171.678 L49.921,171.685 L49.917,171.689 L49.914,171.693 L49.907,171.701 L49.901,171.708 L49.898,171.712 L49.895,171.716 L49.888,171.723 L49.882,171.731 L49.879,171.734 L49.876,171.738 L49.869,171.746 L49.863,171.754 L49.86,171.757 L49.857,171.76 L49.85,171.769 L49.843,171.776 L49.841,171.78 L49.838,171.783 L49.831,171.791 L49.824,171.799 L49.822,171.802 L49.819,171.805 L49.812,171.814 L49.805,171.822 L49.803,171.825 L49.8,171.828 L49.793,171.837 L49.786,171.845 L49.784,171.848 L49.781,171.85 L49.774,171.859 L49.767,171.868 L49.765,171.87 L49.763,171.873 L49.755,171.882 L49.748,171.891 L49.746,171.893 L49.744,171.896 L49.736,171.905 L49.729,171.914 L49.727,171.916 L49.725,171.918 L49.717,171.928 L49.71,171.937 L49.708,171.939 L49.706,171.941 L49.698,171.951 L49.691,171.96 L49.689,171.962 L49.688,171.964 L49.679,171.974 L49.672,171.983 L49.671,171.985 L49.669,171.986 L49.661,171.997 L49.653,172.006 L49.651,172.008 L49.651,172.009 L49.649,172.011 L49.633,172.031 L49.632,172.032 L49.631,172.034 L49.614,172.054 L49.614,172.055 L49.613,172.056 L49.596,172.077 L49.595,172.078 L49.594,172.079 C49.5886382,172.086241 49.5829663,172.093248 49.577,172.1 L49.577,172.101 L49.576,172.102 L49.559,172.124 L49.558,172.125 L49.54,172.147 L49.535,172.153 L49.532,172.158 L49.531,172.158 L49.531,172.159 L49.526,172.165 L49.522,172.17 L49.516,172.178 L49.513,172.181 L49.513,172.182 C49.5097573,172.185461 49.5067505,172.189136 49.504,172.193 C51.074,171.772 52.602,171.044 54.257,171.044 L54.304,171.044 C54.3306209,171.042021 54.3573056,171.04102 54.384,171.041 L54.392,171.041 C55.036,171.046 55.551,171.512 56.017,171.909 C56.932,172.759 57.82,173.65 58.553,174.664 C59.156,175.479 59.283,176.514 59.505,177.475 C59.816,177.507 60.126,177.522 60.435,177.522 L60.458,177.522 C62.071,177.516 63.658,177.104 65.192,176.614 C67.915,175.866 70.38,174.421 73.092,173.633 C75.38,172.828 77.792,172.478 80.211,172.478 L80.237,172.478 C82.33,172.481 84.428,172.744 86.458,173.202 C88.152,173.609 89.817,174.169 91.368,174.972 C91.901,175.222 92.496,175.579 93.088,175.579 L93.093,175.579 C93.339,175.578 93.584,175.516 93.824,175.359 C97.342,173.542 100.786,171.543 104.465,170.065 L104.46,170.079 C103.674,172.492 102.188,174.793 102.486,177.437 L102.498,177.435 C103.502,177.273 104.486,176.907 105.245,176.206 C107.484,174.181 109.178,171.625 110.448,168.899 L110.45,168.919 C110.92,172.38 110.381,175.899 110.99,179.351 L110.995,179.329 C111.806,175.54 111.472,171.629 112.01,167.805 C112.312,165.739 112.526,163.657 112.889,161.6 C113.558,158.554 114.118,155.421 115.683,152.677 C121.188,152.542 126.628,151.519 131.963,150.229 C133.303,149.898 134.631,149.535 135.932,149.077 L135.978,149.062 C139.887,147.764 143.769,146.261 147.282,144.082 C148.964,143.057 150.354,141.559 152.227,140.861 C150.594,143.103 148.472,144.938 146.233,146.554 C138.561,152.352 129.129,155.274 119.708,156.625 C118.283,156.81 116.855,156.959 115.437,157.188 C115.887239,158.567448 116.214843,159.983945 116.416,161.421 L116.445,161.418 C121.392,160.986 126.262,159.867 130.937,158.208 C137.793,155.652 143.893,151.481 149.659,147.043 C151.541,145.551 153.212,143.772 155.296,142.546 L155.288,142.561 C153.939,145.058 151.86,147.041 150.023,149.168 C148.621,150.798 146.962,152.17 145.456,153.691 C139.162,159.472 131.204,163.18 122.961,165.217 C120.871,165.651 118.772,166.052 116.7,166.574 C117.228,168.816 117.383,171.123 117.26,173.421 L117.288,173.415 C122.052,172.375 126.481,170.133 130.585,167.553 C132.925,165.856 135.528,164.546 137.741,162.678 C139.842,160.969 142.061,159.407 144.049,157.563 C146.042,155.743 148.161,154.058 150.014,152.091 C151.016,151.035 152.136,150.109 153.168,149.089 C155.161,147.028 156.852,144.669 159.051,142.81 C158.292,144.804 157.061,146.559 155.973,148.38 C153.033,152.929 150.216,157.572 146.845,161.825 C143.483,166.134 139.795,170.241 135.448,173.586 C131.802,176.461 127.631,178.707 123.166,180.008 C121.408,180.495 119.57,180.629 117.84,181.222 C118.822,182.06 119.924,182.886 121.235,183.089 L121.247,183.088 C122.25,183.011 123.15,182.472 124.081,182.13 C128.434,180.404 132.602,178.17 136.348,175.359 C140.162,172.577 143.448,169.127 146.288,165.369 C147.434,163.795 148.267,161.995 149.627,160.58 L149.625,160.598 C149.308,163.769 147.967,166.721 147.555,169.875 L147.57,169.853 C148.888,167.991 149.922,165.951 151.052,163.974 C152.989,160.272 155.229,156.734 157.022,152.958 C158.119,150.707 159.321,148.509 160.273,146.19 C160.59,145.319 160.965,144.417 160.927,143.476 C160.49,142.523 159.62,141.837 159.241,140.852 C158.84,139.944 158.731,138.903 158.16,138.076 C157.19,137.3 155.85,137.173 154.909,136.35 C154.15,135.649 153.682,134.711 153.165,133.835 L153.153,133.814 L153.12,133.824 L153.12,133.824 Z M80.039,103.517 C81.255,101.705 82.466,99.876 83.952,98.27 C85.177,99.946 86.482,101.729 86.672,103.868 C86.831,105.305 85.934,106.527 85.224,107.685 C86.203,108.561 87.168,109.552 87.496,110.868 C87.81,112.073 88.437,113.357 87.947,114.603 C87.047,117.006 85.309,118.979 83.477,120.729 C82.3245242,121.92961 81.0778842,123.036136 79.749,124.038 C78.098,125.287 76.551,126.829 74.499,127.389 C73.464,127.744 72.459,126.891 72.133,125.953 C71.793,124.935 71.732,123.857 71.553,122.804 C63.002,122.884 54.543,121.09 46.411,118.563 C42.744,117.244 38.928,116.373 35.314,114.899 C32.983,113.961 30.606,113.143 28.323,112.097 C28.786,111.71 29.252,111.323 29.712,110.933 C33.03,112.674 36.639,113.764 40.279,114.603 C49.492,116.13 58.802,116.951 68.067,118.076 C68.844,118.117 69.709,118.369 70.427,117.95 C72.265,116.933 73.722,115.385 75.199,113.923 C76.401,112.601 77.688,111.349 78.74,109.898 C78.157,109.857 77.574,109.828 76.993,109.787 C77.547,107.506 78.814,105.487 80.039,103.517 L80.039,103.517 Z M7.431,96.238 C8.762,96.892 9.29,98.323 9.976,99.533 C10.717,100.867 11.33,102.268 12.042,103.616 C12.332,104.097 12.62,104.71 13.229,104.839 C15.275,105.366 17.445,105.232 19.455,105.926 C21.836,106.747 24.436,107.239 26.441,108.869 C26.03,109.268 25.67,109.892 25.01,109.828 C22.656,109.901 20.417,109.048 18.201,108.371 C16.592,107.82 14.912,107.436 13.385,106.671 C11.925,105.926 11.436,104.25 10.741,102.889 C9.727,100.629 8.419,98.51 7.431,96.238 L7.431,96.238 Z M4.471,95.951 C5.594,97.393 6.279,99.099 6.995,100.764 C7.733,102.661 8.542,104.551 8.888,106.568 C8.15407542,105.566179 7.55119178,104.474671 7.094,103.32 C6.109,100.905 5.215,98.452 4.471,95.951 L4.471,95.951 Z M21.235,89.398 C20.759,89.925 20.346,90.501 19.933,91.076 L20.397,91.19 L20.706,91.265 L21.17,91.378 C21.478,93.424 21.941,95.444 22.199,97.493 C22.372,99.738 22.498,102.209 24.049,103.997 C24.066,102.561 23.776,101.154 23.597,99.738 C23.295,96.869 22.826,94.008 22.138,91.205 C21.912,90.578 21.885,89.752 21.246,89.385 L21.235,89.398 L21.235,89.398 Z M23.978,90.777 C24.708,91.777 24.855,93.029 25.031,94.216 C25.3,96.271 25.544,98.34 25.424,100.415 C24.776,98.079 24.184,95.72 23.808,93.325 C23.644,92.472 23.808,91.613 23.978,90.777 L23.978,90.777 Z M13.388,84.074 C14.17,84.716 14.73,85.56 15.202,86.445 C17.19,86.466 19.183,86.656 21.1,87.198 C20.739,87.585 20.396,88.002 19.954,88.301 C18.174,88.119 16.416,87.591 14.607,87.873 C14.185,86.612 13.719,85.363 13.388,84.074 L13.388,84.074 Z M22.428,84.355 C22.22,82.928 22.108,81.436 22.621,80.052 C23.594,81.359 24.031,82.989 23.952,84.61 C23.442,84.525 22.935,84.437 22.428,84.355 Z M18.687,81.289 C18.74,80.04 19.218,78.862 19.705,77.73 C20.182,78.076 20.64,78.452 21.097,78.824 C19.898,80.281 20.52,82.186 20.332,83.895 C19.907,83.883 19.479,83.874 19.054,83.863 C18.934,83.004 18.72,82.157 18.687,81.289 L18.687,81.289 Z M128.478,59.044 C129.58,58.314 130.937,57.936 132.259,58.073 C133.218,58.372 133.637,59.354 134.071,60.166 C133.285,59.932 132.517,59.606 131.696,59.521 C130.02,59.551 128.627,60.571 127.206,61.327 C127.484,60.506 127.692,59.539 128.478,59.044 L128.478,59.044 Z M136.275,58.836 C136.800693,58.3471268 137.373104,57.9110359 137.984,57.534 C137.632,58.217 137.178,59.026 136.275,58.836 L136.275,58.836 Z M122.747,55.98 C124.386,55.514 125.819,54.535 127.455,54.06 C126.672,55.723 124.975,56.722 123.199,56.96 C122.067,57.065 120.801,57.364 119.793,56.678 C120.777,56.444 121.78,56.279 122.747,55.98 Z M133.112,55.245 C134.041516,54.2219571 135.073968,53.2974087 136.193,52.486 C136.105,53.219 136.205,54.172 135.501,54.641 C134.786,55.081 133.918,55.122 133.112,55.245 L133.112,55.245 Z M130.709,51.548 C132.042,50.675 133.496,49.998 134.768,49.03 C134.54,49.678 134.384,50.432 133.786,50.854 C132.919,51.531 131.758,51.557 130.709,51.548 Z M109.278,45.979 C111.298,46.085 113.276,45.598 115.29,45.58 C116.885,45.525 118.189,46.656 119.294,47.673 C119.86,48.133 119.977,48.866 120.089,49.546 C118.456,49.35 118.013,47.483 116.721,46.726 C115.319,45.777 113.584,46.471 112.051,46.571 C111.075,46.765 110.134,46.401 109.278,45.979 L109.278,45.979 Z M95.572,43.567 C95.363,41.931 96.351,40.556 97.427,39.448 C97.881,40.67 98.113,42.034 99.007,43.039 C99.86,44.124 101.085,44.836 101.903,45.953 C99.564,45.759 97.946,43.646 95.572,43.567 Z M98.646,41.714 C99.057,40.307 99.816,39.014 100.947,38.068 C101.071,39.31 100.745,40.668 101.411,41.799 C102.143,42.945 103.424,43.567 104.298,44.59 C102,44.836 100.08,43.329 98.646,41.714 Z M235.061,43.177 C235.719469,42.5762167 236.421008,42.0244106 237.16,41.526 C237.541,41.946 237.922,42.362 238.306,42.787 C237.241003,43.0304387 236.15335,43.1611582 235.061,43.177 L235.061,43.177 Z M105.113,37.774 C109.557,36.344 113.754,33.87 118.509,33.612 C120.546,33.55 122.844,33.454 124.532,34.799 C122.911,34.902 121.287,34.641 119.672,34.867 C115.783,35.4 112.168,37.018 108.557,38.469 C107.323,38.956 106.013,39.287 104.893,40.026 C106.039,40.374 107.238,40.451 108.419,40.609 C108.006,40.949 107.604,41.359 107.056,41.465 C105.145,41.869 103.251,41.128 101.557,40.307 C101.97,38.501 103.41,37.282 104.77,36.162 C104.887,36.699 104.996,37.235 105.113,37.774 L105.113,37.774 Z M257.26,35.356 C257.659,35.38 258.06,35.406 258.468,35.435 C258.06,35.737 257.65,36.03 257.239,36.32 L257.26,35.356 L257.26,35.356 Z" id="Shape"></path>
        </g>
    </g>
</svg>